<svg width="34" height="34" viewBox="0 0 34 34" fill="none" xmlns="http://www.w3.org/2000/svg">
<g clip-path="url(#clip0_162_255)">
<path d="M1.61597 1.51221H7.24797L11.0214 20.3653C11.1502 21.0136 11.5028 21.5959 12.0176 22.0103C12.5324 22.4247 13.1766 22.6449 13.8374 22.6322H27.5232C28.1839 22.6449 28.8281 22.4247 29.3429 22.0103C29.8578 21.5959 30.2104 21.0136 30.3392 20.3653L32.592 8.55221H8.65597M14.288 29.6722C14.288 30.4498 13.6576 31.0802 12.88 31.0802C12.1024 31.0802 11.472 30.4498 11.472 29.6722C11.472 28.8946 12.1024 28.2642 12.88 28.2642C13.6576 28.2642 14.288 28.8946 14.288 29.6722ZM29.776 29.6722C29.776 30.4498 29.1456 31.0802 28.368 31.0802C27.5904 31.0802 26.96 30.4498 26.96 29.6722C26.96 28.8946 27.5904 28.2642 28.368 28.2642C29.1456 28.2642 29.776 28.8946 29.776 29.6722Z" stroke="#F0F0F0" stroke-width="2.816" stroke-linecap="round" stroke-linejoin="round"/>
</g>
<defs>
<clipPath id="clip0_162_255">
<rect width="33.792" height="33.792" fill="white" transform="translate(0.208008 0.104004)"/>
</clipPath>
</defs>
</svg>
