<svg width="34" height="35" viewBox="0 0 34 35" fill="none" xmlns="http://www.w3.org/2000/svg">
<path d="M24.5 9.69941H24.514M9.79999 3.39941H23.8C27.666 3.39941 30.8 6.53342 30.8 10.3994V24.3994C30.8 28.2654 27.666 31.3994 23.8 31.3994H9.79999C5.93399 31.3994 2.79999 28.2654 2.79999 24.3994V10.3994C2.79999 6.53342 5.93399 3.39941 9.79999 3.39941ZM22.4 16.5174C22.5728 17.6826 22.3737 18.8725 21.8312 19.918C21.2888 20.9636 20.4304 21.8114 19.3783 22.341C18.3261 22.8705 17.1338 23.0548 15.9709 22.8677C14.808 22.6806 13.7337 22.1315 12.9008 21.2986C12.0679 20.4657 11.5188 19.3914 11.3317 18.2285C11.1446 17.0656 11.3289 15.8733 11.8584 14.8211C12.388 13.769 13.2358 12.9107 14.2814 12.3682C15.3269 11.8257 16.5168 11.6266 17.682 11.7994C18.8705 11.9757 19.9708 12.5295 20.8204 13.379C21.6699 14.2286 22.2237 15.3289 22.4 16.5174Z" stroke="#292F42" stroke-width="2.8" stroke-linecap="round" stroke-linejoin="round"/>
</svg>
