<svg width="34" height="35" viewBox="0 0 34 35" fill="none" xmlns="http://www.w3.org/2000/svg">
<path d="M30.8 24.2875V28.4875C30.8016 28.8775 30.7217 29.2634 30.5655 29.6206C30.4093 29.9779 30.1802 30.2986 29.8929 30.5622C29.6056 30.8257 29.2664 31.0264 28.8971 31.1513C28.5277 31.2763 28.1364 31.3226 27.748 31.2875C23.44 30.8194 19.3018 29.3474 15.666 26.9896C12.2834 24.8401 9.4155 21.9722 7.26603 18.5896C4.9 14.9372 3.42757 10.7789 2.96803 6.45155C2.93304 6.0644 2.97905 5.67421 3.10313 5.30582C3.2272 4.93743 3.42663 4.59891 3.6887 4.31182C3.95077 4.02472 4.26976 3.79534 4.62534 3.63828C4.98092 3.48122 5.36531 3.39992 5.75403 3.39955H9.95403C10.6335 3.39286 11.2921 3.63346 11.8073 4.0765C12.3225 4.51953 12.6589 5.13478 12.754 5.80755C12.9313 7.15164 13.2601 8.47137 13.734 9.74155C13.9224 10.2426 13.9632 10.7872 13.8515 11.3108C13.7398 11.8343 13.4804 12.3149 13.104 12.6955L11.326 14.4735C13.319 17.9785 16.2211 20.8806 19.726 22.8735L21.504 21.0956C21.8847 20.7191 22.3652 20.4597 22.8888 20.3481C23.4123 20.2364 23.9569 20.2772 24.458 20.4655C25.7282 20.9395 27.0479 21.2683 28.392 21.4456C29.0721 21.5415 29.6932 21.884 30.1372 22.408C30.5812 22.932 30.8171 23.601 30.8 24.2875Z" stroke="#F0F0F0" stroke-width="2.8" stroke-linecap="round" stroke-linejoin="round"/>
</svg>
