<svg width="34" height="34" viewBox="0 0 34 34" fill="none" xmlns="http://www.w3.org/2000/svg">
<g clip-path="url(#clip0_150_125)">
<path d="M31.556 9.1878C31.3897 8.52338 31.051 7.91461 30.5741 7.42297C30.0972 6.93134 29.4991 6.57426 28.84 6.3878C26.432 5.7998 16.8 5.7998 16.8 5.7998C16.8 5.7998 7.168 5.7998 4.76 6.4438C4.10095 6.63026 3.50277 6.98734 3.02589 7.47897C2.549 7.97061 2.2103 8.57938 2.044 9.2438C1.6033 11.6876 1.38773 14.1666 1.4 16.6498C1.38429 19.1517 1.59988 21.6496 2.044 24.1118C2.22734 24.7556 2.57363 25.3412 3.0494 25.8121C3.52517 26.2829 4.11435 26.6231 4.76 26.7998C7.168 27.4438 16.8 27.4438 16.8 27.4438C16.8 27.4438 26.432 27.4438 28.84 26.7998C29.4991 26.6133 30.0972 26.2563 30.5741 25.7646C31.051 25.273 31.3897 24.6642 31.556 23.9998C31.9933 21.5744 32.2089 19.1143 32.2 16.6498C32.2157 14.1479 32.0001 11.65 31.556 9.1878Z" stroke="#292F42" stroke-width="2.8" stroke-linecap="round" stroke-linejoin="round"/>
<path d="M13.65 21.2278L21.7 16.6498L13.65 12.0718V21.2278Z" stroke="#292F42" stroke-width="2.8" stroke-linecap="round" stroke-linejoin="round"/>
</g>
<defs>
<clipPath id="clip0_150_125">
<rect width="33.6" height="33.6" fill="white" transform="translate(0 0.200195)"/>
</clipPath>
</defs>
</svg>
